<?xml version="1.0" encoding="UTF-8" standalone="no"?>
<!-- Created with Inkscape (http://www.inkscape.org/) -->

<svg
   width="1882.777"
   height="2588.5525"
   viewBox="0 0 498.15141 684.88784"
   version="1.1"
   id="svg1"
   xml:space="preserve"
   inkscape:version="1.3 (0e150ed6c4, 2023-07-21)"
   sodipodi:docname="grain_logo_color.svg"
   xmlns:inkscape="http://www.inkscape.org/namespaces/inkscape"
   xmlns:sodipodi="http://sodipodi.sourceforge.net/DTD/sodipodi-0.dtd"
   xmlns="http://www.w3.org/2000/svg"
   xmlns:svg="http://www.w3.org/2000/svg"><sodipodi:namedview
     id="namedview1"
     pagecolor="#ffffff"
     bordercolor="#999999"
     borderopacity="1"
     inkscape:showpageshadow="2"
     inkscape:pageopacity="0"
     inkscape:pagecheckerboard="0"
     inkscape:deskcolor="#d1d1d1"
     inkscape:document-units="mm"
     inkscape:zoom="0.22551428"
     inkscape:cx="798.17562"
     inkscape:cy="2155.0742"
     inkscape:window-width="1280"
     inkscape:window-height="955"
     inkscape:window-x="0"
     inkscape:window-y="0"
     inkscape:window-maximized="1"
     inkscape:current-layer="layer1" /><defs
     id="defs1" /><g
     inkscape:label="Layer 1"
     inkscape:groupmode="layer"
     id="layer1"
     transform="translate(627.31894,840.32489)"><g
       id="g3"><path
         id="path25"
         style="fill:#446418;fill-opacity:1;stroke-width:21.9383"
         d="M -402.22674 -822.13324 C -410.61807 -822.2598 -418.99456 -818.47277 -424.11274 -811.2662 C -432.7138 -799.15548 -430.07167 -782.84603 -418.1038 -774.17389 C -415.93858 -772.60471 -414.18481 -771.19152 -414.20637 -771.033 C -414.98858 -765.31283 -417.56631 -730.97373 -417.3023 -729.79159 C -416.97706 -728.33521 -411.2156 -722.33886 -374.53179 -685.27802 L -337.34387 -647.70822 C -340.48446 -636.35154 -344.38864 -622.119 -349.34056 -604.00908 L -357.8403 -572.92467 C -367.5948 -578.70936 -382.06372 -587.17074 -398.94942 -596.92579 L -451.07388 -627.03817 L -453.24119 -639.47927 C -454.4332 -646.32188 -455.73548 -653.88373 -456.13507 -656.28341 L -456.86164 -660.64645 L -453.36057 -663.57651 C -450.31829 -666.12269 -449.50247 -667.18505 -447.13149 -671.69074 C -444.81773 -676.08782 -444.34742 -677.54601 -444.03659 -681.28912 C -443.03968 -693.29399 -449.58858 -704.06856 -460.59372 -708.53087 C -463.96621 -709.89837 -467.48983 -710.48833 -470.95742 -710.39122 C -481.36021 -710.10013 -491.2574 -703.62828 -495.04639 -693.4305 C -500.21991 -679.50632 -493.44675 -664.43627 -479.64217 -659.15714 C -477.14458 -658.20185 -475.08487 -657.29065 -475.06467 -657.13194 C -474.33974 -651.40423 -467.94188 -617.56817 -467.3809 -616.49462 C -466.6898 -615.17207 -459.5728 -610.87091 -414.54691 -584.56737 L -362.90562 -554.39971 L -372.49522 -519.32846 L -374.0543 -518.95898 C -383.97055 -527.74543 -423.07522 -546.00878 -454.97545 -546.29271 L -454.97545 -546.29322 C -465.66948 -546.38752 -476.62635 -545.42988 -487.53522 -543.35645 C -538.98567 -533.57737 -583.87689 -502.6519 -603.71625 -463.30656 C -611.15308 -448.55784 -614.05635 -437.03672 -614.08926 -422.24447 C -614.13556 -400.86076 -607.96485 -385.32402 -593.18407 -369.61822 C -576.08241 -351.44628 -552.88301 -341.14904 -520.62778 -337.40985 C -514.40762 -336.68874 -496.89959 -336.87432 -489.05399 -337.74988 C -436.99934 -343.55875 -389.87378 -370.50305 -364.5293 -408.94605 C -352.39842 -427.34637 -346.11989 -449.63164 -347.85279 -468.12487 C -348.56293 -475.7034 -349.50146 -476.69449 -352.62563 -473.20363 C -354.60644 -470.99027 -366.31374 -462.03022 -372.07974 -458.31823 C -388.55795 -447.71009 -404.26123 -443.69832 -449.56752 -438.50135 C -497.57335 -432.99476 -515.69208 -428.79106 -537.13426 -418.19665 C -550.02892 -411.82549 -550.44817 -412.85421 -538.35848 -421.18975 C -518.68657 -434.75307 -499.04599 -441.02298 -450.50854 -449.23765 C -440.05231 -451.00731 -431.26092 -452.72093 -423.38617 -454.48901 C -421.77625 -454.50823 -420.16125 -454.6698 -417.95911 -455.06468 C -414.16903 -455.74432 -410.58301 -456.96237 -407.26726 -458.61692 C -389.36757 -464.04708 -378.33553 -470.72705 -366.86455 -481.50235 C -360.88668 -487.11772 -356.6048 -491.94419 -353.01114 -497.0337 C -353.01114 -497.0337 -353.40284 -497.47076 -353.423 -497.49414 C -351.98361 -498.32293 -350.83893 -499.18621 -350.09038 -500.22162 C -349.37051 -501.21732 -338.62039 -539.93219 -326.07014 -586.72125 L -325.89651 -587.36875 L -266.89701 -587.67003 C -214.75168 -587.93661 -206.43758 -588.1032 -205.17778 -588.90303 C -204.15518 -589.55226 -181.69641 -615.65621 -178.20475 -620.25409 C -178.1079 -620.38144 -175.86894 -620.14072 -173.22831 -619.71923 C -158.63363 -617.38882 -145.2328 -627.05334 -142.7511 -641.69877 C -140.93359 -652.42482 -146.26873 -662.97801 -155.13226 -668.43151 C -158.08672 -670.24939 -161.43317 -671.50038 -165.0376 -672.00235 C -176.79946 -673.64046 -187.85855 -667.58405 -192.99765 -656.68907 C -194.60002 -653.29203 -194.92161 -651.79407 -195.11638 -646.82921 C -195.3159 -641.74167 -195.14058 -640.4134 -193.77899 -636.68719 L -192.21217 -632.39908 L -195.02285 -628.9843 C -196.56873 -627.10592 -201.47761 -621.20801 -205.93122 -615.87812 L -214.0284 -606.18776 L -274.22576 -606.17174 C -293.15647 -606.16662 -309.55439 -606.07914 -320.9118 -605.95315 L -303.35215 -671.41892 L -286.66325 -679.15902 C -277.4844 -683.41618 -267.33501 -688.09964 -264.10907 -689.56665 L -258.24379 -692.23367 L -252.80123 -688.41272 C -248.07156 -685.09184 -246.26851 -684.34452 -239.03463 -682.70712 C -231.97526 -681.10923 -229.74615 -680.99736 -224.36214 -681.97125 C -207.09411 -685.09476 -194.40223 -698.37139 -192.27263 -715.53923 C -189.66215 -736.5833 -205.47331 -756.34198 -226.51033 -758.32421 C -248.05355 -760.35408 -266.7047 -745.1417 -268.92841 -723.72684 C -269.33084 -719.85232 -269.83619 -716.61031 -270.05186 -716.52211 C -277.83793 -713.34255 -323.03678 -691.58346 -324.33588 -690.38934 C -325.22631 -689.57085 -327.01596 -684.2582 -331.56697 -668.28164 C -338.76016 -675.575 -346.67778 -683.58364 -356.26727 -693.17832 L -398.82229 -735.75556 L -397.69575 -748.33361 C -397.07613 -755.25159 -396.37695 -762.89264 -396.14184 -765.31396 L -395.71396 -769.71628 L -391.57416 -771.64071 C -387.97654 -773.31275 -386.91369 -774.12765 -383.45734 -777.86617 C -380.08436 -781.51459 -379.25227 -782.80136 -377.98325 -786.33645 C -373.91323 -797.67426 -377.45064 -809.77653 -386.92586 -816.9351 C -389.82952 -819.12887 -393.08042 -820.61073 -396.455 -821.41442 C -398.35318 -821.86653 -400.29027 -822.10403 -402.22674 -822.13324 z M -403.15898 -803.65581 C -402.42339 -803.67895 -401.70366 -803.60059 -401.01441 -803.4336 C -396.87885 -802.4318 -393.83567 -798.24603 -394.99772 -793.7298 C -396.12892 -789.3335 -401.19414 -786.71211 -405.5547 -788.26605 C -412.40533 -790.70731 -412.29797 -801.07237 -405.39915 -803.26824 C -404.64608 -803.50795 -403.89457 -803.63267 -403.15898 -803.65581 z M -229.50188 -731.67571 C -227.20223 -731.53459 -224.91824 -730.66583 -222.96946 -728.88983 C -216.16234 -722.68615 -218.70234 -711.25267 -227.42759 -708.82129 C -233.79784 -707.04615 -240.7945 -711.52628 -242.01016 -718.15922 C -243.44261 -725.97477 -236.40083 -732.09907 -229.50188 -731.67571 z M -470.70783 -691.843 C -466.4539 -691.9457 -462.43125 -688.69003 -462.38482 -684.02694 C -462.33962 -679.48765 -466.55358 -675.64468 -471.16775 -676.01709 C -478.41679 -676.60209 -480.99574 -686.64192 -474.90034 -690.5485 C -473.56961 -691.40139 -472.1258 -691.8088 -470.70783 -691.843 z M -169.11073 -653.70062 C -167.55502 -653.72981 -165.98488 -653.32391 -164.62263 -652.49294 C -163.41176 -651.75434 -162.36485 -650.67956 -161.63884 -649.27557 C -158.31336 -642.84466 -165.56707 -635.43945 -172.13742 -638.55736 C -176.31961 -640.54193 -178.04755 -645.97733 -175.73875 -649.88587 C -174.2564 -652.39534 -171.70358 -653.65197 -169.11073 -653.70062 z " /><g
         id="g2"><path
           style="font-size:225.898px;font-family:Gidugu;-inkscape-font-specification:'Gidugu, Normal';fill:#4f6137;stroke-width:1.14577"
           d="m -557.81604,-255.10894 v -16.68108 h 48.83737 v 43.00905 q -18.48987,17.08303 -48.03347,17.08303 -28.13676,0 -42.60709,-16.07815 -14.47034,-16.27912 -14.47034,-41.60221 0,-28.13676 16.07815,-42.20514 16.07815,-14.26936 39.59244,-14.26936 40.99928,0 47.63152,31.15142 l -22.30843,4.01954 q -5.02442,-17.68597 -25.32309,-17.68597 -32.35727,0 -32.35727,38.18561 0,19.29377 8.44103,30.14653 8.642,10.85275 23.71527,10.85275 14.06838,0 26.72992,-9.64689 v -16.27913 z m 64.51367,42.00417 v -110.53728 h 47.83249 q 22.50941,0 33.36216,6.63224 10.85275,6.63223 10.85275,23.91624 0,26.127 -32.55825,30.95044 14.67131,7.63712 27.93579,28.94067 l 12.66154,20.09769 h -26.52895 l -24.3182,-36.37682 q -3.81856,-5.62735 -8.24005,-8.03907 -4.42149,-2.6127 -13.66643,-2.6127 h -4.62246 v 47.02859 z m 22.71039,-62.90576 h 16.88205 q 16.88206,0 22.91137,-2.81368 6.23028,-3.01465 6.23028,-12.66154 0,-9.24494 -5.2254,-12.05861 -5.02442,-3.01466 -23.11234,-3.01466 h -17.68596 z m 190.52619,62.90576 h -24.3182 l -9.84787,-25.52407 h -44.61686 l -9.24494,25.52407 h -23.71527 l 43.00905,-110.53728 h 24.51918 z m -40.79831,-42.40612 -15.87717,-43.21003 -15.87717,43.21003 z m 50.24403,42.40612 v -110.53728 h 22.91136 v 110.53728 z m 39.19045,0 v -110.53728 h 22.30843 l 46.0237,74.76339 v -74.76339 h 20.70062 v 110.53728 h -22.91136 l -45.01882,-72.95461 v 72.95461 z"
           id="text39"
           aria-label="GRAIN" /><g
           id="g1"><path
             style="font-size:57.6724px;font-family:Gidugu;-inkscape-font-specification:'Gidugu, Normal';fill:#4f6137;stroke-width:0.292518"
             d="m -599.72281,-185.17027 v -4.25873 h 12.46833 v 10.98033 q -4.72052,4.36135 -12.26309,4.36135 -7.18339,0 -10.87771,-4.1048 -3.69432,-4.1561 -3.69432,-10.62116 0,-7.1834 4.1048,-10.77509 4.1048,-3.64301 10.10806,-3.64301 10.46724,0 12.16047,7.95304 l -5.69541,1.0262 q -1.28275,-4.51527 -6.46506,-4.51527 -8.2609,0 -8.2609,9.74889 0,4.92576 2.15502,7.69649 2.20633,2.77074 6.05457,2.77074 3.5917,0 6.82423,-2.46288 v -4.1561 z m 21.75546,10.72378 h -5.49017 v -20.26744 h 5.131 v 2.82205 q 2.0524,-3.33515 4.72051,-3.33515 1.94978,0 3.54039,0.97489 l -1.59061,4.46397 q -1.48799,-0.97489 -2.66812,-0.97489 -2.00108,0 -2.82204,2.0524 -0.82096,2.00109 -0.82096,8.05566 z m 22.11461,-6.25982 5.43886,0.92358 q -2.00109,5.69541 -8.92794,5.69541 -5.43885,0 -7.79911,-3.02729 -2.30895,-3.0786 -2.30895,-7.43994 0,-4.72052 2.51419,-7.74781 2.5655,-3.02729 6.97815,-3.02729 9.95414,0 9.95414,11.95523 h -13.85369 q 0.30786,5.6954 4.56658,5.6954 2.61681,0 3.43777,-3.02729 z m 0.41048,-5.54147 q -0.20524,-5.38755 -4.15611,-5.38755 -4.05348,0 -4.05348,5.38755 z m 21.19104,5.54147 5.43885,0.92358 q -2.00108,5.69541 -8.92793,5.69541 -5.43886,0 -7.79911,-3.02729 -2.30895,-3.0786 -2.30895,-7.43994 0,-4.72052 2.51419,-7.74781 2.56549,-3.02729 6.97815,-3.02729 9.95413,0 9.95413,11.95523 h -13.85369 q 0.30786,5.6954 4.56659,5.6954 2.61681,0 3.43777,-3.02729 z m 0.41048,-5.54147 q -0.20524,-5.38755 -4.15611,-5.38755 -4.05349,0 -4.05349,5.38755 z m 27.81003,11.80129 h -5.49017 v -10.36461 q 0,-3.79694 -0.71834,-5.23362 -0.66703,-1.48799 -2.66812,-1.48799 -1.79584,0 -3.18121,1.12882 -1.38537,1.07751 -1.38537,6.82423 v 9.13317 h -5.49017 v -20.26744 h 5.07969 v 2.97598 q 2.71943,-3.48908 6.92684,-3.48908 6.92685,0 6.92685,8.10698 z m 40.79143,0 h -6.20851 l -2.51419,-6.51637 h -11.39081 l -2.36026,6.51637 h -6.05457 l 10.98033,-28.22048 h 6.25981 z m -10.41593,-10.8264 -4.05348,-11.03165 -4.05349,11.03165 z m 12.82745,10.8264 v -28.22048 h 5.84934 v 28.22048 z m 20.2161,0 v -28.22048 h 19.65171 v 4.36135 h -13.85369 v 7.28601 h 11.95522 v 4.31004 h -11.95522 v 12.26308 z m 22.37113,-10.56985 q 0,-4.20742 2.92467,-7.23471 2.92467,-3.0786 7.7478,-3.0786 4.87445,0 7.79912,3.02729 2.97598,2.97598 2.97598,7.54257 0,4.51527 -2.97598,7.59387 -2.92467,3.0786 -7.74781,3.0786 -4.97706,0 -7.85042,-2.87336 -2.87336,-2.87336 -2.87336,-8.05566 z m 5.59279,0.30786 q 0,2.97597 1.38537,4.82313 1.43667,1.79585 3.69431,1.79585 2.36026,0 3.69432,-1.79585 1.38537,-1.84716 1.38537,-4.87444 0,-3.02729 -1.38537,-4.77183 -1.33406,-1.79585 -3.69432,-1.79585 -2.25764,0 -3.69431,1.84716 -1.38537,1.79585 -1.38537,4.77183 z m 24.42359,10.26199 h -5.49017 v -20.26744 h 5.131 v 2.82205 q 2.0524,-3.33515 4.72051,-3.33515 1.94978,0 3.54039,0.97489 l -1.59061,4.46397 q -1.48799,-0.97489 -2.66812,-0.97489 -2.00108,0 -2.82204,2.0524 -0.82096,2.00109 -0.82096,8.05566 z m 24.42353,-14.57203 -4.92575,-0.87227 q 1.5393,-5.43886 8.87662,-5.43886 5.23362,0 6.97816,1.74454 1.79585,1.74454 1.79585,6.05458 l -0.0513,6.36243 q 0,4.41266 1.0262,6.56768 h -5.28493 q -0.25655,-0.71834 -0.66703,-2.10371 -2.77074,2.61681 -6.41375,2.61681 -3.18121,0 -5.07968,-1.64192 -1.84716,-1.64192 -1.84716,-4.25873 0,-2.1037 1.18013,-3.69431 1.23144,-1.59061 6.31112,-2.61681 3.89956,-0.66703 5.43886,-1.33406 v -0.82096 q 0,-3.18122 -3.79694,-3.18122 -2.5655,0 -3.54039,2.61681 z m 7.33733,4.46397 q -2.61681,0.5131 -6.25982,1.74454 -1.18013,0.82095 -1.18013,2.20632 0,1.59061 0.97489,2.36026 0.97489,0.76965 2.10371,0.76965 4.36135,0 4.36135,-5.6954 z m 20.01084,10.10806 v -28.22048 h 5.6954 l 11.74998,19.08731 v -19.08731 h 5.28493 v 28.22048 h -5.84934 l -11.49343,-18.62552 v 18.62552 z m 39.76522,-6.25982 5.43886,0.92358 q -2.00109,5.69541 -8.92793,5.69541 -5.43886,0 -7.79912,-3.02729 -2.30895,-3.0786 -2.30895,-7.43994 0,-4.72052 2.51419,-7.74781 2.5655,-3.02729 6.97816,-3.02729 9.95413,0 9.95413,11.95523 h -13.85369 q 0.30786,5.6954 4.56659,5.6954 2.6168,0 3.43776,-3.02729 z m 0.41048,-5.54147 q -0.20524,-5.38755 -4.1561,-5.38755 -4.05349,0 -4.05349,5.38755 z m 13.1867,11.80129 -6.41374,-20.26744 h 5.28492 l 3.84825,13.44321 3.54039,-13.44321 h 5.38754 l 3.43777,13.44321 3.89956,-13.44321 h 5.38754 l -6.51636,20.26744 h -5.38755 l -3.48907,-13.18666 -3.54039,13.18666 z m 41.56106,0 -6.72161,-28.22048 h 5.90065 l 4.31003,19.5491 5.18231,-19.5491 h 6.97816 l 4.97706,19.85696 4.36135,-19.85696 h 5.79802 l -6.87553,28.22048 h -6.25982 l -5.59278,-21.24233 -5.69541,21.24233 z m 32.17141,-10.56985 q 0,-4.20742 2.92467,-7.23471 2.92467,-3.0786 7.7478,-3.0786 4.87445,0 7.79912,3.02729 2.97598,2.97598 2.97598,7.54257 0,4.51527 -2.97598,7.59387 -2.92467,3.0786 -7.74781,3.0786 -4.97706,0 -7.85042,-2.87336 -2.87336,-2.87336 -2.87336,-8.05566 z m 5.59279,0.30786 q 0,2.97597 1.38537,4.82313 1.43667,1.79585 3.69431,1.79585 2.36026,0 3.69432,-1.79585 1.38537,-1.84716 1.38537,-4.87444 0,-3.02729 -1.38537,-4.77183 -1.33406,-1.79585 -3.69432,-1.79585 -2.25764,0 -3.69431,1.84716 -1.38537,1.79585 -1.38537,4.77183 z m 24.42356,10.26199 h -5.49017 v -20.26744 h 5.131 v 2.82205 q 2.0524,-3.33515 4.72051,-3.33515 1.94978,0 3.54039,0.97489 l -1.59061,4.46397 q -1.48799,-0.97489 -2.66812,-0.97489 -2.00108,0 -2.82204,2.0524 -0.82096,2.00109 -0.82096,8.05566 z m 9.80024,0 v -28.22048 h 5.49017 v 28.22048 z m 29.14409,-0.15393 h -5.13099 v -2.92467 q -2.46288,3.43777 -6.51637,3.43777 -4.00218,0 -6.36243,-3.02729 -2.30895,-3.0786 -2.30895,-7.64518 0,-4.82314 2.25764,-7.6965 2.25763,-2.87336 6.46505,-2.87336 3.5917,0 6.05458,2.82205 v -10.26199 h 5.54147 z m -14.72596,-10.56985 q 0,7.28601 4.66921,7.28601 2.10371,0 3.33515,-1.89847 1.23144,-1.89847 1.23144,-4.87444 0,-6.97816 -4.6179,-6.97816 -4.6179,0 -4.6179,6.46506 z"
             id="text40"
             aria-label="Green AI For a New World" /><path
             style="font-size:57.6724px;font-family:Gidugu;-inkscape-font-specification:'Gidugu, Normal';fill:#96b753;stroke-width:0.292518"
             d="m -465.21687,-174.47769 h -6.2085 l -2.51419,-6.51637 h -11.39081 l -2.36026,6.51637 h -6.05458 l 10.98033,-28.22049 h 6.25982 z m -10.41592,-10.82641 -4.05349,-11.03164 -4.05349,11.03164 z m 12.82744,10.82641 v -28.22049 h 5.84934 v 28.22049 z"
             id="text41"
             aria-label="AI" /></g></g></g></g></svg>
