<?xml version="1.0" encoding="UTF-8" standalone="no"?>
<svg
   viewBox="0 0 37.282533 37.282715"
   height="37.282715"
   width="37.282532"
   xml:space="preserve"
   id="svg2"
   version="1.1"
   sodipodi:docname="site_Sidney.svg"
   inkscape:version="1.3.1 (9b9bdc1480, 2023-11-25, custom)"
   inkscape:export-filename="site_Sidney.png"
   inkscape:export-xdpi="150"
   inkscape:export-ydpi="150"
   xmlns:inkscape="http://www.inkscape.org/namespaces/inkscape"
   xmlns:sodipodi="http://sodipodi.sourceforge.net/DTD/sodipodi-0.dtd"
   xmlns="http://www.w3.org/2000/svg"
   xmlns:svg="http://www.w3.org/2000/svg"
   xmlns:rdf="http://www.w3.org/1999/02/22-rdf-syntax-ns#"
   xmlns:cc="http://creativecommons.org/ns#"
   xmlns:dc="http://purl.org/dc/elements/1.1/"><sodipodi:namedview
     id="namedview1"
     pagecolor="#ffffff"
     bordercolor="#666666"
     borderopacity="1.0"
     inkscape:showpageshadow="2"
     inkscape:pageopacity="0.0"
     inkscape:pagecheckerboard="0"
     inkscape:deskcolor="#d1d1d1"
     inkscape:zoom="0.50000001"
     inkscape:cx="773.99998"
     inkscape:cy="663.99998"
     inkscape:window-width="1374"
     inkscape:window-height="831"
     inkscape:window-x="0"
     inkscape:window-y="0"
     inkscape:window-maximized="1"
     inkscape:current-layer="svg2"
     showguides="true"
     inkscape:export-bgcolor="#ffffff00"
     showgrid="false" /><metadata
     id="metadata8"><rdf:RDF><cc:Work
         rdf:about=""><dc:format>image/svg+xml</dc:format><dc:type
           rdf:resource="http://purl.org/dc/dcmitype/StillImage" /></cc:Work></rdf:RDF></metadata><defs
     id="defs6" /><g
     id="g1984"
     transform="translate(-2457.8034,-2001.3195)"><g
       id="g1983"><path
         fill="#010101"
         d="m 2492.1887,2018.2116 -6.9987,6.9964 c -3.863,3.8654 -10.1298,3.8654 -13.9928,0 -0.6088,-0.6064 -1.0847,-1.2901 -1.5027,-1.9955 l 3.2518,-3.2518 c 0.1546,-0.1559 0.3455,-0.2453 0.5279,-0.3503 0.2246,0.7683 0.6172,1.4954 1.2212,2.0993 1.9291,1.9303 5.0686,1.9279 6.9964,0 l 6.9963,-6.9963 c 1.9304,-1.9303 1.9304,-5.0686 0,-6.9976 -1.9279,-1.9291 -5.066,-1.9291 -6.9963,0 l -2.4884,2.4908 c -2.0184,-0.7864 -4.194,-0.9978 -6.3115,-0.6874 l 5.3016,-5.3016 c 3.8654,-3.8642 10.1298,-3.8642 13.9952,0 3.863,3.8643 3.863,10.1299 0,13.994 z m -18.5019,11.5045 -2.4896,2.4907 c -1.929,1.9279 -5.0685,1.9279 -6.9976,0 -1.929,-1.9303 -1.929,-5.0685 0,-6.9987 l 6.9976,-6.9964 c 1.9303,-1.9303 5.0673,-1.9303 6.9964,0 0.6028,0.6028 0.9953,1.3299 1.2225,2.097 0.1836,-0.1063 0.3721,-0.1933 0.5267,-0.3479 l 3.2518,-3.2506 c -0.4156,-0.7078 -0.8939,-1.3891 -1.5027,-1.9967 -3.863,-3.8641 -10.1298,-3.8641 -13.994,0 l -6.9964,6.9964 c -3.8641,3.8654 -3.8641,10.1297 0,13.9951 3.8642,3.863 10.1298,3.863 13.994,0 l 5.3029,-5.3028 c -2.1188,0.3116 -4.2943,0.099 -6.3116,-0.6861 z"
         id="path1983"
         style="fill:#2b0f00;fill-opacity:0.4;stroke-width:0.0773079" /></g></g></svg>
