<?xml version="1.0" encoding="UTF-8" standalone="no"?>
<svg
   viewBox="0 0 347.5614 331.15714"
   height="331.15714"
   width="347.5614"
   xml:space="preserve"
   id="svg2"
   version="1.1"
   sodipodi:docname="unknow-male.svg"
   inkscape:version="1.3 (0e150ed, 2023-07-21)"
   xmlns:inkscape="http://www.inkscape.org/namespaces/inkscape"
   xmlns:sodipodi="http://sodipodi.sourceforge.net/DTD/sodipodi-0.dtd"
   xmlns="http://www.w3.org/2000/svg"
   xmlns:svg="http://www.w3.org/2000/svg"
   xmlns:rdf="http://www.w3.org/1999/02/22-rdf-syntax-ns#"
   xmlns:cc="http://creativecommons.org/ns#"
   xmlns:dc="http://purl.org/dc/elements/1.1/"><sodipodi:namedview
     id="namedview1"
     pagecolor="#ffffff"
     bordercolor="#666666"
     borderopacity="1.0"
     inkscape:showpageshadow="2"
     inkscape:pageopacity="0.0"
     inkscape:pagecheckerboard="0"
     inkscape:deskcolor="#d1d1d1"
     inkscape:zoom="0.59983531"
     inkscape:cx="447.62287"
     inkscape:cy="136.70419"
     inkscape:window-width="1920"
     inkscape:window-height="1015"
     inkscape:window-x="0"
     inkscape:window-y="0"
     inkscape:window-maximized="1"
     inkscape:current-layer="svg2"
     showguides="true"
     showgrid="false" /><metadata
     id="metadata8"><rdf:RDF><cc:Work
         rdf:about=""><dc:format>image/svg+xml</dc:format><dc:type
           rdf:resource="http://purl.org/dc/dcmitype/StillImage" /></cc:Work></rdf:RDF></metadata><defs
     id="defs6" /><path
     style="fill:#446418;fill-opacity:1;stroke-width:4.2448"
     d="m 0,330.08518 c 0,-0.59003 1.8921216,-7.16098 4.2047759,-14.60213 5.8786721,-18.91548 11.2256401,-28.52916 18.0990401,-32.54147 9.149039,-5.34073 27.271935,-12.68764 52.120002,-21.1292 25.848182,-8.78127 36.772782,-14.0104 45.715102,-21.88175 l 5.91815,-5.20935 0.97299,-15.57245 c 0.89897,-14.38726 0.75278,-15.96403 -1.92069,-20.71732 -7.2106,-12.81999 -9.77166,-19.60832 -10.55254,-27.97059 -0.77731,-8.32397 -1.04222,-8.87274 -4.62998,-9.59029 -3.23165,-0.64631 -4.11245,-1.84419 -5.84089,-7.94343 -7.58432,-26.76353 -7.880183,-39.10326 -0.93746,-39.10326 2.41835,0 2.43728,-0.29926 0.40877,-6.4521 -3.52616,-10.694965 -3.076,-45.331295 0.79098,-60.861209 2.8244,-11.342797 3.68062,-12.98507 10.99646,-21.090906 4.36345,-4.834662 10.26067,-9.996302 13.10494,-11.470311 2.84423,-1.473965 6.21584,-3.684999 7.49246,-4.9134027 1.27659,-1.228362 4.90938,-2.670704 8.07282,-3.205167 3.16348,-0.534463 7.82585,-2.195455 10.36076,-3.691112 4.86357,-2.86957301 9.9069,-2.85874901 31.71662,0.06792 5.13503,0.689101 9.8322,0.676919 11.22645,-0.02971 1.7191,-0.870567 2.62478,-0.621015 3.20156,0.882113 0.44239,1.152846 1.62708,2.096084 2.63263,2.096084 3.82512,0 9.02946,3.396311 10.97783,7.1640837 1.73472,3.354542 2.74639,3.875634 7.02944,3.620691 9.28678,-0.552758 11.60661,-0.109092 9.93823,1.901333 -1.17827,1.419717 -0.39434,2.538775 3.56912,5.093765 10.53152,6.789395 14.91165,26.149184 12.4191,54.89118 -1.35787,15.657943 -3.43956,30.383728 -4.79416,33.913748 -0.56388,1.46942 0.0531,2.0822 2.09659,2.0822 3.64739,0 6.00648,5.68363 5.07424,12.22504 -1.43852,10.09419 -6.39908,29.12131 -8.38064,32.14556 -1.14283,1.74415 -3.22627,3.17121 -4.62986,3.17121 -2.12545,0 -2.70776,1.41891 -3.484,8.48961 -0.96926,8.82869 -5.40644,20.36067 -10.15892,26.40247 -2.34182,2.97714 -2.75692,5.48336 -2.74423,16.56832 0.0255,21.30705 0.41896,22.4512 10.13074,29.38139 10.90685,7.78298 22.01156,13.21612 34.67946,16.96738 21.45239,6.3526 54.18641,19.50033 61.47962,24.6936 6.96029,4.95615 12.73696,16.72822 18.61181,37.92843 l 2.59409,9.36098 H 173.78073 C 78.201396,331.15713 8.4899717e-5,330.67437 8.4899717e-5,330.08439 Z"
     id="path58" /></svg>
